# xmcd CD database file
#
# Track frame offsets:
#	150
#	25031
#	40583
#	65547
#	87445
#	103008
#	130274
#	156711
#	170466
#	190213
#	214440
#	231573
#	272664
#	297515
#
# Disc length: 4236 seconds
#
# Revision: 0
# Processed by: cddbd v1.5.2PL0 Copyright (c) Steve Scherf et al.
# Submitted via: CDex 1.70beta2
#
DISCID=d6108a0e
DTITLE=Di Mauro Swing - Flammes manouches
DYEAR=2008
DGENRE=Jazz
TTITLE0=There will never be another you
TTITLE1=C'est une histoire
TTITLE2=Estate
TTITLE3=Oulechto Courgo
TTITLE4=Petit Tzigane
TTITLE5=Out of nowhere
TTITLE6=Maitie swing
TTITLE7=Di Mauro swing
TTITLE8=Minor swing
TTITLE9=Pache toute
TTITLE10=Gipsy swing
TTITLE11=Sweet Georgia Brown and Djangology
TTITLE12=Les yeux noirs
TTITLE13=Nature boy
EXTD=YEAR: 2008
EXTT0=
EXTT1=
EXTT2=
EXTT3=
EXTT4=
EXTT5=
EXTT6=
EXTT7=
EXTT8=
EXTT9=
EXTT10=
EXTT11=
EXTT12=
EXTT13=
PLAYORDER=
